<svg viewBox="0 0 32 32" fill="none" xmlns="http://www.w3.org/2000/svg">
  <!-- Star shape - pixel art style -->
  <rect x="14" y="2" width="4" height="4" fill="#FBBF24"/>
  <rect x="13" y="4" width="6" height="2" fill="#F59E0B"/>
  
  <rect x="12" y="6" width="8" height="4" fill="#FBBF24"/>
  <rect x="13" y="7" width="6" height="2" fill="#FDE68A"/>
  
  <!-- Top arms -->
  <rect x="2" y="10" width="28" height="4" fill="#FBBF24"/>
  <rect x="4" y="11" width="24" height="2" fill="#F59E0B"/>
  <rect x="10" y="11" width="12" height="2" fill="#FDE68A"/>
  
  <!-- Middle section -->
  <rect x="6" y="14" width="20" height="4" fill="#FBBF24"/>
  <rect x="8" y="15" width="16" height="2" fill="#FDE68A"/>
  
  <rect x="8" y="18" width="16" height="4" fill="#FBBF24"/>
  <rect x="10" y="19" width="12" height="2" fill="#F59E0B"/>
  
  <!-- Bottom arms -->
  <rect x="6" y="22" width="6" height="4" fill="#FBBF24"/>
  <rect x="7" y="23" width="4" height="2" fill="#F59E0B"/>
  <rect x="4" y="26" width="4" height="4" fill="#FBBF24"/>
  <rect x="5" y="27" width="2" height="2" fill="#F59E0B"/>
  
  <rect x="20" y="22" width="6" height="4" fill="#FBBF24"/>
  <rect x="21" y="23" width="4" height="2" fill="#F59E0B"/>
  <rect x="24" y="26" width="4" height="4" fill="#FBBF24"/>
  <rect x="25" y="27" width="2" height="2" fill="#F59E0B"/>
  
  <!-- Center bottom -->
  <rect x="12" y="22" width="8" height="2" fill="#FBBF24"/>
</svg>