<svg viewBox="0 0 32 32" fill="none" xmlns="http://www.w3.org/2000/svg">
  <!-- Antenna -->
  <rect x="15" y="2" width="2" height="3" fill="#4ADE80"/>
  <rect x="14" y="1" width="4" height="2" fill="#22C55E"/>
  
  <!-- Head -->
  <rect x="8" y="5" width="16" height="12" fill="#3B82F6"/>
  <rect x="9" y="6" width="14" height="10" fill="#60A5FA"/>
  
  <!-- Eyes -->
  <rect x="11" y="8" width="4" height="4" fill="#1E3A8A"/>
  <rect x="17" y="8" width="4" height="4" fill="#1E3A8A"/>
  <rect x="12" y="9" width="2" height="2" fill="#FBBF24"/>
  <rect x="18" y="9" width="2" height="2" fill="#FBBF24"/>
  
  <!-- Mouth -->
  <rect x="12" y="13" width="8" height="2" fill="#1E3A8A"/>
  <rect x="13" y="13" width="2" height="1" fill="#4ADE80"/>
  <rect x="17" y="13" width="2" height="1" fill="#4ADE80"/>
  
  <!-- Neck -->
  <rect x="13" y="17" width="6" height="2" fill="#6B7280"/>
  
  <!-- Body -->
  <rect x="7" y="19" width="18" height="10" fill="#3B82F6"/>
  <rect x="8" y="20" width="16" height="8" fill="#60A5FA"/>
  
  <!-- Chest panel -->
  <rect x="11" y="21" width="10" height="6" fill="#1E3A8A"/>
  <rect x="12" y="22" width="2" height="2" fill="#EF4444"/>
  <rect x="15" y="22" width="2" height="2" fill="#FBBF24"/>
  <rect x="18" y="22" width="2" height="2" fill="#4ADE80"/>
  <rect x="13" y="25" width="6" height="1" fill="#22D3EE"/>
  
  <!-- Arms -->
  <rect x="4" y="20" width="3" height="8" fill="#3B82F6"/>
  <rect x="25" y="20" width="3" height="8" fill="#3B82F6"/>
  <rect x="4" y="27" width="3" height="2" fill="#6B7280"/>
  <rect x="25" y="27" width="3" height="2" fill="#6B7280"/>
</svg>