<svg width="160" height="200" viewBox="0 0 160 200" xmlns="http://www.w3.org/2000/svg">

  <!-- Welcome Text -->
  <text x="80" y="24" text-anchor="middle"
        font-size="16"
        font-family="monospace"
        fill="#2563EB"
        style="font-weight: bold;">
    WELCOME!
  </text>

  <!-- Atom Icon Left -->
  <circle cx="24" cy="24" r="8" fill="none" stroke="#10B981" stroke-width="2"/>
  <ellipse cx="24" cy="24" rx="12" ry="4" fill="none" stroke="#10B981" stroke-width="2"/>
  <ellipse cx="24" cy="24" rx="4" ry="12" fill="none" stroke="#10B981" stroke-width="2"/>

  <!-- Formula Right -->
  <text x="110" y="30" font-size="10" fill="#EF4444" font-family="monospace">
    E = mc²
  </text>

  <!-- Head -->
  <rect x="56" y="40" width="48" height="48" fill="#FFD8A8" stroke="#000" stroke-width="3"/>

  <!-- Hair -->
  <rect x="56" y="40" width="48" height="12" fill="#5A3E2B"/>

  <!-- Eyes -->
  <rect x="68" y="60" width="8" height="8" fill="#000"/>
  <rect x="84" y="60" width="8" height="8" fill="#000"/>

  <!-- Glasses -->
  <rect x="64" y="58" width="20" height="12" fill="none" stroke="#000" stroke-width="2"/>
  <rect x="84" y="58" width="20" height="12" fill="none" stroke="#000" stroke-width="2"/>

  <!-- Smile -->
  <rect x="74" y="76" width="12" height="3" fill="#000"/>

  <!-- Body (Lab Coat) -->
  <rect x="52" y="88" width="56" height="56" fill="#E5E7EB" stroke="#000" stroke-width="3"/>

  <!-- Shirt -->
  <rect x="72" y="88" width="16" height="56" fill="#FFFFFF"/>

  <!-- Tie -->
  <rect x="76" y="88" width="8" height="28" fill="#2563EB"/>

  <!-- Pocket -->
  <rect x="60" y="104" width="12" height="12" fill="#FFFFFF" stroke="#000" stroke-width="1"/>

  <!-- Left Arm -->
  <rect x="40" y="96" width="12" height="36" fill="#FFD8A8" stroke="#000" stroke-width="2"/>

  <!-- Right Arm (waving up) -->
  <rect x="108" y="88" width="12" height="36" fill="#FFD8A8" stroke="#000" stroke-width="2"/>

  <!-- Left Hand -->
  <rect x="40" y="132" width="12" height="8" fill="#FFD8A8" stroke="#000" stroke-width="2"/>

  <!-- Right Hand -->
  <rect x="108" y="80" width="12" height="8" fill="#FFD8A8" stroke="#000" stroke-width="2"/>

  <!-- Small Atom Decoration Near Body -->
  <circle cx="32" cy="120" r="6" fill="none" stroke="#3B82F6" stroke-width="2"/>
  <ellipse cx="32" cy="120" rx="10" ry="3" fill="none" stroke="#3B82F6" stroke-width="2"/>

</svg>
