<svg viewBox="0 0 32 32" fill="none" xmlns="http://www.w3.org/2000/svg">
  <!-- Nose cone -->
  <rect x="14" y="1" width="4" height="2" fill="#E5E7EB"/>
  <rect x="13" y="3" width="6" height="2" fill="#F3F4F6"/>
  <rect x="12" y="5" width="8" height="2" fill="#E5E7EB"/>
  
  <!-- Body -->
  <rect x="11" y="7" width="10" height="14" fill="#F3F4F6"/>
  <rect x="12" y="8" width="8" height="12" fill="#E5E7EB"/>
  
  <!-- Window -->
  <rect x="13" y="9" width="6" height="6" fill="#3B82F6"/>
  <rect x="14" y="10" width="4" height="4" fill="#60A5FA"/>
  <rect x="15" y="11" width="2" height="2" fill="#93C5FD"/>
  
  <!-- Red stripe -->
  <rect x="12" y="16" width="8" height="3" fill="#EF4444"/>
  <rect x="13" y="17" width="6" height="1" fill="#DC2626"/>
  
  <!-- Fins -->
  <rect x="6" y="18" width="5" height="8" fill="#EF4444"/>
  <rect x="7" y="19" width="3" height="6" fill="#DC2626"/>
  <rect x="5" y="22" width="2" height="4" fill="#B91C1C"/>
  
  <rect x="21" y="18" width="5" height="8" fill="#EF4444"/>
  <rect x="22" y="19" width="3" height="6" fill="#DC2626"/>
  <rect x="25" y="22" width="2" height="4" fill="#B91C1C"/>
  
  <!-- Engine -->
  <rect x="12" y="21" width="8" height="3" fill="#6B7280"/>
  <rect x="13" y="22" width="6" height="2" fill="#4B5563"/>
  
  <!-- Flames -->
  <rect x="13" y="24" width="6" height="3" fill="#FBBF24"/>
  <rect x="14" y="27" width="4" height="2" fill="#F59E0B"/>
  <rect x="15" y="29" width="2" height="2" fill="#EF4444"/>
  <rect x="12" y="25" width="2" height="3" fill="#F59E0B"/>
  <rect x="18" y="25" width="2" height="3" fill="#F59E0B"/>
</svg>