<svg viewBox="0 0 32 32" fill="none" xmlns="http://www.w3.org/2000/svg">
  <!-- Outer ring -->
  <rect x="8" y="2" width="16" height="4" fill="#EF4444"/>
  <rect x="4" y="4" width="24" height="2" fill="#EF4444"/>
  <rect x="2" y="6" width="28" height="2" fill="#EF4444"/>
  <rect x="2" y="8" width="4" height="16" fill="#EF4444"/>
  <rect x="26" y="8" width="4" height="16" fill="#EF4444"/>
  <rect x="2" y="24" width="28" height="2" fill="#EF4444"/>
  <rect x="4" y="26" width="24" height="2" fill="#EF4444"/>
  <rect x="8" y="28" width="16" height="2" fill="#EF4444"/>
  
  <!-- White ring -->
  <rect x="10" y="6" width="12" height="2" fill="#FFFFFF"/>
  <rect x="6" y="8" width="20" height="2" fill="#FFFFFF"/>
  <rect x="6" y="10" width="4" height="12" fill="#FFFFFF"/>
  <rect x="22" y="10" width="4" height="12" fill="#FFFFFF"/>
  <rect x="6" y="22" width="20" height="2" fill="#FFFFFF"/>
  <rect x="10" y="24" width="12" height="2" fill="#FFFFFF"/>
  
  <!-- Inner red ring -->
  <rect x="12" y="10" width="8" height="2" fill="#EF4444"/>
  <rect x="10" y="12" width="12" height="2" fill="#EF4444"/>
  <rect x="10" y="14" width="2" height="4" fill="#EF4444"/>
  <rect x="20" y="14" width="2" height="4" fill="#EF4444"/>
  <rect x="10" y="18" width="12" height="2" fill="#EF4444"/>
  <rect x="12" y="20" width="8" height="2" fill="#EF4444"/>
  
  <!-- Bullseye -->
  <rect x="14" y="14" width="4" height="4" fill="#FBBF24"/>
  <rect x="15" y="15" width="2" height="2" fill="#FDE68A"/>
  
  <!-- Arrow -->
  <rect x="14" y="1" width="4" height="3" fill="#92400E"/>
  <rect x="15" y="4" width="2" height="12" fill="#92400E"/>
  <rect x="12" y="2" width="2" height="2" fill="#6B7280"/>
  <rect x="18" y="2" width="2" height="2" fill="#6B7280"/>
  <rect x="10" y="0" width="2" height="3" fill="#EF4444"/>
  <rect x="20" y="0" width="2" height="3" fill="#EF4444"/>
</svg>